<?xml version="1.0" standalone="no"?>
<!DOCTYPE svg PUBLIC "-//W3C//DTD SVG 20010904//EN"
 "http://www.w3.org/TR/2001/REC-SVG-20010904/DTD/svg10.dtd">
<svg version="1.0" xmlns="http://www.w3.org/2000/svg"
 width="1024.000000pt" height="1024.000000pt" viewBox="0 0 1024.000000 1024.000000"
 preserveAspectRatio="xMidYMid meet">

<g transform="translate(0.000000,1024.000000) scale(0.100000,-0.100000)"
fill="#000000" stroke="none">
<path d="M1499 7155 c-128 -28 -228 -63 -332 -116 -76 -38 -179 -107 -192
-129 -4 -6 -31 -28 -60 -50 -70 -51 -190 -203 -243 -305 -131 -255 -153 -421
-134 -1045 12 -398 19 -429 140 -700 8 -19 34 -57 57 -85 23 -27 55 -71 73
-96 17 -25 41 -53 54 -61 13 -9 43 -35 68 -58 66 -62 222 -161 322 -203 47
-20 133 -49 190 -64 l103 -27 830 -4 c585 -2 854 0 910 8 140 20 301 72 419
134 37 20 73 36 80 36 6 0 34 20 63 45 28 25 55 45 60 45 4 0 47 38 94 83 117
114 190 219 266 382 68 146 105 130 -309 133 l-358 2 -53 -48 c-30 -27 -86
-66 -126 -86 -140 -71 -97 -68 -981 -66 -685 1 -803 3 -850 17 -185 52 -320
185 -387 382 -24 70 -31 674 -9 780 41 197 165 343 356 420 l65 26 815 0 c919
0 864 4 1003 -79 64 -38 167 -129 167 -148 0 -4 160 -8 356 -8 l356 0 -6 36
c-30 159 -168 387 -320 529 -52 49 -103 93 -113 98 -10 5 -29 20 -43 33 -14
13 -45 30 -70 39 -24 8 -51 21 -60 29 -35 30 -212 96 -315 117 -109 23 -119
23 -945 25 l-835 3 -106 -24z"/>
<path d="M7175 7174 c-311 -28 -581 -157 -811 -388 -76 -77 -125 -149 -210
-311 -33 -61 -64 -150 -64 -182 l0 -23 348 0 347 0 67 64 c71 68 145 113 243
149 60 22 61 22 875 22 l815 0 75 -31 c86 -35 200 -118 242 -175 15 -21 28
-41 28 -44 0 -3 11 -22 24 -43 58 -90 61 -115 61 -512 0 -352 -1 -368 -23
-438 -53 -170 -182 -299 -357 -357 l-90 -30 -780 0 c-727 0 -785 1 -850 19
-93 24 -189 77 -250 137 l-51 49 -356 0 c-196 0 -359 -4 -362 -8 -16 -26 73
-212 162 -342 192 -278 534 -475 887 -511 62 -6 407 -9 900 -7 l800 3 110 29
c206 53 375 143 545 290 47 41 147 161 188 226 93 148 155 339 172 535 12 131
12 502 1 740 -8 159 -30 291 -60 360 -5 11 -24 54 -42 95 -39 88 -66 135 -123
209 -173 228 -439 394 -731 458 -72 15 -162 17 -885 19 -443 0 -823 -1 -845
-2z"/>
<path d="M3268 5988 c-58 -15 -151 -110 -174 -178 -44 -131 -13 -276 79 -362
98 -92 -121 -83 1997 -86 1345 -2 1890 1 1929 9 42 9 65 22 111 62 70 63 95
110 109 205 18 115 -16 219 -95 292 -83 76 96 70 -2016 69 -1217 -1 -1916 -5
-1940 -11z"/>
<path d="M3780 2257 l0 -647 298 2 297 3 3 93 3 92 -161 0 -160 0 -2 551 -3
552 -137 1 -138 1 0 -648z"/>
<path d="M4460 2260 l0 -650 135 0 135 0 0 650 0 650 -135 0 -135 0 0 -650z"/>
<path d="M6342 2880 c-9 -17 -34 -54 -54 -83 -20 -29 -55 -83 -77 -122 -23
-38 -54 -86 -71 -105 l-29 -35 -1 183 0 182 -140 0 -140 0 2 -642 3 -643 135
0 135 0 5 230 c6 263 -6 254 98 74 34 -58 71 -132 82 -163 12 -31 36 -76 54
-99 l32 -42 135 -2 c73 -1 139 0 146 2 8 3 -6 36 -38 92 -27 48 -62 120 -78
158 -16 39 -45 96 -64 128 -20 32 -54 101 -77 155 -24 53 -54 119 -67 145
l-24 49 55 92 c31 50 56 95 56 99 0 5 15 29 32 55 18 26 41 63 52 82 10 19 45
77 77 129 33 51 59 97 59 102 0 5 -63 9 -140 9 l-141 0 -17 -30z"/>
<path d="M4899 2418 c0 -266 -1 -555 -2 -643 l-2 -160 130 0 130 0 0 392 c0
215 3 389 6 388 3 -2 11 -30 18 -62 15 -67 67 -236 161 -518 l67 -200 134 0
134 0 3 643 2 642 -125 0 -125 0 -1 -367 c0 -203 -2 -363 -4 -358 -25 74 -95
318 -146 505 -12 47 -33 114 -45 150 l-22 65 -156 3 -156 3 -1 -483z"/>
<path d="M0 205 l0 -205 4720 0 4720 0 0 80 0 80 320 0 320 0 0 -80 0 -80 80
0 80 0 0 205 0 205 -5120 0 -5120 0 0 -205z"/>
</g>
</svg>
